HIERARCHY
ROOT Hips
{
	OFFSET -0.001795 -0.223333 0.028219
	CHANNELS 6 Xposition Yposition Zposition Zrotation Yrotation Xrotation 
	JOINT LeftUpLeg
	{
		OFFSET 0.069520 -0.091406 -0.006815
		CHANNELS 3 Zrotation Yrotation Xrotation
		JOINT LeftLeg
		{
			OFFSET 0.034277 -0.375199 -0.004496
			CHANNELS 3 Zrotation Yrotation Xrotation
			JOINT LeftFoot
			{
				OFFSET -0.013596 -0.397961 -0.043693
				CHANNELS 3 Zrotation Yrotation Xrotation
				JOINT LeftToe
				{
					OFFSET 0.026358 -0.055791 0.119288
					CHANNELS 3 Zrotation Yrotation Xrotation
					End Site
					{
						OFFSET 0.000000 0.000000 0.000000
					}
				}
			}
		}
	}
	JOINT RightUpLeg
	{
		OFFSET -0.067670 -0.090522 -0.004320
		CHANNELS 3 Zrotation Yrotation Xrotation
		JOINT RightLeg
		{
			OFFSET -0.038290 -0.382569 -0.008850
			CHANNELS 3 Zrotation Yrotation Xrotation
			JOINT RightFoot
			{
				OFFSET 0.015774 -0.398415 -0.042312
				CHANNELS 3 Zrotation Yrotation Xrotation
				JOINT RightToe
				{
					OFFSET -0.025372 -0.048144 0.123348
					CHANNELS 3 Zrotation Yrotation Xrotation
					End Site
					{
						OFFSET 0.000000 0.000000 0.000000
					}
				}
			}
		}
	}
	JOINT Spine
	{
		OFFSET -0.002533 0.108963 -0.026696
		CHANNELS 3 Zrotation Yrotation Xrotation
		JOINT Spine1
		{
			OFFSET 0.005487 0.135180 0.001092
			CHANNELS 3 Zrotation Yrotation Xrotation
			JOINT Spine2
			{
				OFFSET 0.001457 0.052922 0.025425
				CHANNELS 3 Zrotation Yrotation Xrotation
				JOINT Neck
				{
					OFFSET -0.002778 0.213870 -0.042857
					CHANNELS 3 Zrotation Yrotation Xrotation
					JOINT Head
					{
						OFFSET 0.005152 0.064970 0.051349
						CHANNELS 3 Zrotation Yrotation Xrotation
						End Site
						{
							OFFSET 0.000000 0.000000 0.000000
						}
					}
				}
				JOINT LeftShoulder
				{
					OFFSET 0.078845 0.121749 -0.034090
					CHANNELS 3 Zrotation Yrotation Xrotation
					JOINT LeftArm
					{
						OFFSET 0.090977 0.030469 -0.008868
						CHANNELS 3 Zrotation Yrotation Xrotation
						JOINT LeftForeArm
						{
							OFFSET 0.259612 -0.012772 -0.027456
							CHANNELS 3 Zrotation Yrotation Xrotation
							JOINT LeftHand
							{
								OFFSET 0.249234 0.008986 -0.001171
								CHANNELS 3 Zrotation Yrotation Xrotation
								End Site
								{
									OFFSET 0.000000 0.000000 0.000000
								}
							}
						}
					}
				}
				JOINT RightShoulder
				{
					OFFSET -0.081759 0.118833 -0.038615
					CHANNELS 3 Zrotation Yrotation Xrotation
					JOINT RightArm
					{
						OFFSET -0.096012 0.032551 -0.009143
						CHANNELS 3 Zrotation Yrotation Xrotation
						JOINT RightForeArm
						{
							OFFSET -0.253742 -0.013329 -0.021401
							CHANNELS 3 Zrotation Yrotation Xrotation
							JOINT RightHand
							{
								OFFSET -0.255298 0.007772 -0.005559
								CHANNELS 3 Zrotation Yrotation Xrotation
								End Site
								{
									OFFSET 0.000000 0.000000 0.000000
								}
							}
						}
					}
				}
			}
		}
	}
}
MOTION
Frames: 8
Frame Time: 0.050000
0.000000 0.830909 0.000000 -4.861597 -11.330202 19.178388 2.943702 0.250514 -60.293557 -2.094217 1.091331 43.523649 8.992948 18.234926 -0.649716 0.000000 0.000000 0.000000 -0.836916 4.903148 -36.060789 14.701230 -3.309440 52.129988 -11.610594 -30.031560 -6.332510 0.000000 0.000000 0.000000 -9.855032 8.784127 65.231645 9.184811 -0.328365 -34.463608 3.399713 9.768302 25.145106 -7.497008 6.168864 -35.210186 0.000000 0.000000 0.000000 -35.515526 -25.312982 13.492815 -31.853196 -27.414814 1.877403 5.484663 -29.479317 -0.123312 0.000000 0.000000 0.000000 21.907103 27.233676 17.669842 33.044822 32.275087 2.772448 -9.506664 31.208662 -1.046901 0.000000 0.000000 0.000000 
0.004364 0.827211 0.017920 -5.865106 -11.150772 19.751113 2.696410 0.086703 -59.341006 -0.990310 0.527154 43.573843 9.161076 18.694400 -4.918529 0.000000 0.000000 0.000000 -1.005582 4.963697 -36.534916 16.641341 -4.490653 52.989945 -13.088233 -32.736108 -2.204770 0.000000 0.000000 0.000000 -9.392304 8.331925 64.749262 8.622397 -0.333766 -33.874454 4.048301 8.403247 25.610771 -10.935394 6.889450 -41.126668 0.000000 0.000000 0.000000 -37.250850 -22.515797 12.294660 -28.703152 -28.682863 1.479271 2.278048 -29.743066 0.762820 0.000000 0.000000 0.000000 21.346702 28.710396 17.938183 32.848271 31.655219 2.648400 -8.308227 33.524511 -0.815109 0.000000 0.000000 0.000000 
0.010429 0.829701 0.034877 -6.546099 -11.442446 19.226474 2.293497 -0.107659 -57.713760 -0.125637 0.180929 44.180549 9.307902 19.093686 -6.380312 0.000000 0.000000 0.000000 -2.904975 4.517391 -36.487248 19.484521 -6.162763 53.577756 -13.554756 -32.013999 5.212702 0.000000 0.000000 0.000000 -9.146219 8.296406 64.999270 7.613482 -0.229421 -33.889369 4.993592 7.809140 25.051167 -9.138888 6.409598 -36.904600 0.000000 0.000000 0.000000 -37.021724 -22.483915 12.597182 -29.707548 -28.646214 1.584565 2.407457 -29.048036 0.715128 0.000000 0.000000 0.000000 21.025183 30.240208 18.446731 33.376184 30.615374 2.672516 -8.708826 33.007815 -0.987074 0.000000 0.000000 0.000000 
0.017999 0.834051 0.050029 -8.390565 -12.174484 20.178195 2.427249 0.293542 -57.386008 1.531937 -0.581788 44.478112 9.378577 19.281749 -6.838507 0.000000 0.000000 0.000000 -4.612655 4.965084 -41.005985 24.044783 -9.323453 57.017605 -15.675892 -32.737892 18.323681 0.000000 0.000000 0.000000 -10.380238 9.516722 64.712877 9.710077 -0.564603 -33.195190 6.141761 8.882427 25.060355 -10.876823 7.027412 -38.452739 0.000000 0.000000 0.000000 -38.708209 -21.642111 11.659492 -29.937731 -28.850063 1.759753 2.863719 -29.797451 0.651326 0.000000 0.000000 0.000000 17.513051 29.405741 17.001394 34.844720 31.535938 3.307879 -6.717620 33.637915 -0.412398 0.000000 0.000000 0.000000 
0.025595 0.839251 0.063174 -8.457022 -11.902975 19.956188 2.123517 0.006237 -56.843697 1.098061 -0.345811 45.201334 9.367301 19.215335 -5.837352 0.000000 0.000000 0.000000 -9.032004 4.019635 -43.766767 27.455210 -12.302701 58.626092 -14.599485 -29.676757 26.164032 0.000000 0.000000 0.000000 -9.689943 9.212150 66.342775 9.021636 -0.428673 -33.856427 6.783230 7.480186 25.092264 -10.923213 7.055198 -36.448471 0.000000 0.000000 0.000000 -38.789009 -20.930696 11.755133 -29.491846 -28.741923 1.533706 1.708051 -32.083705 1.048636 0.000000 0.000000 0.000000 16.458201 28.365653 15.728217 35.922849 31.581925 3.582324 -6.620948 35.338427 -0.362449 0.000000 0.000000 0.000000 
0.031855 0.843695 0.074382 -9.285302 -11.601618 20.274186 2.223515 -0.054138 -56.117898 1.415830 -0.532304 44.835799 9.287298 19.088949 -5.944836 0.000000 0.000000 0.000000 -11.700190 3.528226 -47.275378 28.837133 -14.358300 61.240382 -16.328322 -31.380021 28.072669 0.000000 0.000000 0.000000 -9.406262 9.072667 67.202257 9.515064 -0.551940 -33.285763 7.298128 8.091748 25.254494 -11.248904 7.148871 -37.557491 0.000000 0.000000 0.000000 -36.735472 -20.840597 11.003387 -31.671100 -28.779507 1.930065 0.628933 -34.995819 1.474321 0.000000 0.000000 0.000000 15.025942 27.326436 14.914306 37.498486 31.793508 4.014212 -9.737744 37.086999 -1.233891 0.000000 0.000000 0.000000 
0.036378 0.849895 0.083819 -9.135923 -10.550549 20.194263 2.180317 -0.425158 -55.888984 0.637684 -0.246450 45.108273 8.994068 18.417272 -4.331639 0.000000 0.000000 0.000000 -12.921602 3.034560 -49.152216 28.337670 -15.355118 64.087689 -18.030955 -34.637567 22.624793 0.000000 0.000000 0.000000 -8.386105 8.028747 68.474291 9.496036 -0.495255 -33.843207 7.236197 7.386978 25.409857 -10.943029 7.106161 -36.337710 0.000000 0.000000 0.000000 -37.631218 -20.019426 10.683771 -30.498661 -27.122030 1.333032 -1.327105 -38.446167 2.319553 0.000000 0.000000 0.000000 14.226524 26.062693 13.889654 39.387336 30.626298 4.004321 -10.070665 39.500204 -1.368912 0.000000 0.000000 0.000000 
0.039340 0.856452 0.092039 -9.517965 -10.089517 20.524854 2.637778 -0.342530 -55.524619 0.348208 -0.141069 44.484159 8.602652 17.595309 -2.755764 0.000000 0.000000 0.000000 -13.380143 2.936759 -51.357374 28.509618 -16.194083 65.305529 -19.417113 -37.215949 20.043375 0.000000 0.000000 0.000000 -7.603671 7.402694 69.495829 8.688228 -0.348277 -34.287619 7.393077 7.179505 25.362604 -10.486583 6.795306 -37.685433 0.000000 0.000000 0.000000 -37.249418 -19.871946 10.560257 -30.552624 -26.772441 1.253396 -1.175142 -40.713728 2.436420 0.000000 0.000000 0.000000 13.576270 24.868590 13.102341 41.854969 29.840810 4.245147 -11.653994 41.626675 -1.892639 0.000000 0.000000 0.000000 
